<svg width="40" height="40" viewBox="0 0 40 40" fill="none" xmlns="http://www.w3.org/2000/svg">
  <defs>
    <linearGradient id="logo-gradient" x1="0" y1="0" x2="40" y2="40" gradientUnits="userSpaceOnUse">
      <stop offset="0%" stopColor="#3b82f6" />
      <stop offset="100%" stopColor="#8b5cf6" />
    </linearGradient>
  </defs>
  <rect x="2" y="2" width="36" height="36" rx="8" stroke="url(#logo-gradient)" strokeWidth="2" fill="none" opacity="0.8" />
  <path d="M14 13h5v8.5a2.5 2.5 0 0 1-5 0" stroke="url(#logo-gradient)" strokeWidth="2.5" strokeLinecap="round" strokeLinejoin="round" />
  <path d="M21 21.5a2.5 2.5 0 0 1 2.5-2.5h2.5a2.5 2.5 0 0 1 2.5 2.5v1a2.5 2.5 0 0 1-2.5 2.5h-2.5a2.5 2.5 0 0 0-2.5 2.5v1a2.5 2.5 0 0 0 2.5 2.5h2.5" stroke="url(#logo-gradient)" strokeWidth="2.5" strokeLinecap="round" strokeLinejoin="round" />
</svg>
